<svg xmlns:dc="http://purl.org/dc/elements/1.1/" xmlns:cc="http://creativecommons.org/ns#" xmlns:rdf="http://www.w3.org/1999/02/22-rdf-syntax-ns#" xmlns:svg="http://www.w3.org/2000/svg" xmlns="http://www.w3.org/2000/svg" xml:space="preserve" id="svg2" version="1.1" viewBox="171.61 318.58 405.11 178.2"><metadata id="metadata8"><rdf:RDF><cc:Work rdf:about=""><dc:format>image/svg+xml</dc:format><dc:type rdf:resource="http://purl.org/dc/dcmitype/StillImage"/></cc:Work></rdf:RDF></metadata><defs id="defs6"/><g transform="matrix(1.3333333,0,0,-1.3333333,0,1122.5197)" id="g10"><path id="path12" style="fill:#332d2b;fill-opacity:1;fill-rule:evenodd;stroke:#dddede;stroke-width:0.56690001;stroke-linecap:butt;stroke-linejoin:miter;stroke-miterlimit:22.92558479;stroke-dasharray:none;stroke-opacity:1" d="M 128.9222,602.7389 H 432.3305 V 469.5106 H 128.9222 Z"/><path id="path14" style="fill:#e6232a;fill-opacity:1;fill-rule:evenodd;stroke:#cacacb;stroke-width:0.56690001;stroke-linecap:butt;stroke-linejoin:miter;stroke-miterlimit:22.92558479;stroke-dasharray:none;stroke-opacity:1" d="m 291.6499,527.3476 -8.3855,-1.0721 c 0.8578,1.2331 2.668,2.8412 3.7163,4.235 1.1435,1.6081 2.287,2.8947 3.4304,4.6638 0.9528,1.3938 5.7172,9.1667 5.7172,10.5605 v 0.2678 c 0,2.5198 -2.5727,11.043 -4.4784,11.043 h -0.286 c -1.048,0 -3.2397,-6.4863 -3.8115,-7.7193 -1.2387,-2.5195 -2.4775,-5.3071 -3.9067,-7.6658 -1.5248,-2.4122 -2.7635,-4.8781 -4.4787,-7.1297 -0.667,-0.9649 -4.8595,-6.3255 -4.8595,-6.9151 0,-1.0185 2.382,-5.9505 2.9537,-6.8618 2.1918,-3.8597 1.5248,-2.6266 6.4797,-2.6266 h 4.7645 c -0.7625,-3.2165 -6.0032,-15.7603 -6.0032,-17.3149 v -0.2681 c 0,-0.9114 5.0502,-4.4493 5.2407,-4.4493 1.3343,0 4.3832,9.006 5.0505,10.6676 1.2387,3.0558 3.7162,8.7378 4.3832,11.74 l 6.5747,0.1607 c 0.5717,0.9114 4.7644,9.6492 4.7644,10.5069 v 0.2682 c 0,0.6432 -0.4765,1.0721 -1.0482,1.0721 h -0.5718 c -1.2387,0 -3.1444,-1.0721 -5.5267,-1.0721 0.1908,1.6081 2.7635,8.0946 3.4305,10.0244 0.4765,1.4474 3.1445,9.2739 3.1445,10.1852 0,0.6432 -6.4794,10.2923 -7.3372,10.2923 -1.2387,0 -2.0962,-6.3791 -2.4775,-7.8264 -0.4765,-2.573 -1.2387,-5.8967 -2.001,-8.47 -0.7622,-2.4122 -1.5247,-5.5749 -2.1917,-8.0946 -0.4762,-1.9834 -2.0962,-6.4326 -2.2867,-8.2017 z"/><path id="path16" style="fill:#fd0202;fill-opacity:1;fill-rule:evenodd;stroke:none" d="M 292.4121,526.0073 280.12,524.721 c 0.4765,0.8039 3.3349,3.7525 4.2879,4.6635 1.4293,1.5548 2.8588,3.2701 4.0975,5.0392 0.9527,1.3938 6.5747,10.1316 6.5747,11.5789 0,2.2516 -2.1915,9.3277 -3.7162,9.703 -1.2388,-5.4144 -12.4827,-25.7847 -16.0084,-28.0899 0.667,-1.3938 3.24,-8.1482 4.4787,-8.1482 l 10.3862,-0.0535 -6.6699,-18.7626 4.4784,-3.0019 c 1.5245,3.3237 3.0492,7.7194 4.4785,11.2576 0.667,1.8762 1.334,3.6986 2.1917,5.7359 0.381,1.0184 1.5245,5.3606 2.4775,5.3606 l 6.1937,0.0535 4.0972,9.1131 -7.9089,-1.5545 7.4327,21.8177 -6.3845,8.8988 c -0.381,-4.2349 -2.668,-12.0614 -3.8115,-16.4571 -0.953,-3.9135 -4.0974,-12.8656 -4.3832,-15.8678"/><path id="path18" style="fill:#eff0f0;fill-opacity:1;fill-rule:evenodd;stroke:#e6232a;stroke-width:0.56690001;stroke-linecap:butt;stroke-linejoin:miter;stroke-miterlimit:22.92558479;stroke-dasharray:none;stroke-opacity:1" d="m 184.737,517.6449 h 3.4302 l 1.62,10.5068 c 0,-1.8226 2.287,-10.775 3.9067,-10.775 h 0.286 c 1.4292,0 3.6207,8.5771 3.6207,10.239 h 0.5717 c 0,-1.5545 0.667,-9.9708 1.8105,-9.9708 h 2.6683 c 0,3.9668 -0.8578,7.1297 -1.3343,10.7211 -0.2857,1.9837 -0.7622,9.4885 -2.6679,9.4885 h -0.1905 c -1.8105,0 -4.0023,-9.7563 -4.4785,-11.8472 -1.4295,2.0373 -2.6682,11.8472 -4.7645,11.8472 h -0.286 c -1.9057,0 -2.2867,-7.2369 -2.5727,-9.4349 -0.381,-3.0019 -1.6197,-7.9336 -1.6197,-10.7747 z"/><path id="path20" style="fill:#eff0f0;fill-opacity:1;fill-rule:evenodd;stroke:#e6232a;stroke-width:0.56690001;stroke-linecap:butt;stroke-linejoin:miter;stroke-miterlimit:22.92558479;stroke-dasharray:none;stroke-opacity:1" d="m 316.0434,518.1273 c 0,-0.3217 0.3813,-0.4824 0.8578,-0.4824 h 2.668 l 1.2387,10.2387 c 1.334,-1.5545 2.001,-10.5069 4.1927,-10.5069 h 0.2858 c 2.0965,0 2.9539,8.6845 4.1927,10.5069 l 1.334,-10.2387 h 2.5727 c 1.4295,0 0.4765,3.7525 0.286,4.9317 -0.1908,1.5545 -0.5717,3.4846 -0.8578,5.5216 -0.2857,1.9834 -0.9527,9.7563 -2.7632,9.7563 h -0.286 c -2.3819,0 -3.4302,-10.8822 -4.7642,-11.8472 0,1.5013 -2.954,11.8472 -4.1927,11.8472 h -1.0482 c -0.4766,-1.6617 -1.1435,-1.5546 -1.334,-4.4493 -0.0953,-1.662 -0.667,-3.3236 -0.7623,-4.9856 -0.1907,-3.0554 -1.62,-7.8264 -1.62,-10.2923 z"/><path id="path22" style="fill:#eff0f0;fill-opacity:1;fill-rule:evenodd;stroke:#e6232a;stroke-width:0.56690001;stroke-linecap:butt;stroke-linejoin:miter;stroke-miterlimit:22.92558479;stroke-dasharray:none;stroke-opacity:1" d="m 216.563,531.7971 v -0.8042 c 0,-3.4308 0.7622,-4.3421 2.8587,-5.7359 1.5245,0 6.8607,0.5896 6.8607,-0.8042 0,-0.5896 -0.1905,-0.8042 -0.7622,-0.8042 h -7.3372 l -1.9058,-6.0037 h 9.4334 c 2.7633,0 4.002,3.5914 4.002,6.54 0,3.2162 -0.9527,6.0574 -4.1924,6.0574 h -5.5268 v 1.2866 h 6.7655 c 0.9527,0 2.668,4.8246 2.668,6.0577 h -9.243 c -2.287,0 -3.6209,-3.2701 -3.6209,-5.7895 z"/><path id="path24" style="fill:#eff0f0;fill-opacity:1;fill-rule:evenodd;stroke:#e6232a;stroke-width:0.56690001;stroke-linecap:butt;stroke-linejoin:miter;stroke-miterlimit:22.92558479;stroke-dasharray:none;stroke-opacity:1" d="m 254.6782,536.7824 v -18.3872 c 0,-0.5896 0.0952,-0.7503 0.7622,-0.7503 h 8.8617 c 0.3812,1.3402 1.906,4.2349 1.906,5.2534 v 0.7503 h -7.909 v 1.3403 h 4.955 c 1.1435,0 2.3822,4.1813 2.3822,5.5216 h -7.3372 v 1.0184 h 6.003 l 1.906,6.0577 h -10.7677 c -0.667,0 -0.7622,-0.161 -0.7622,-0.8042 z"/><path id="path26" style="fill:#eff0f0;fill-opacity:1;fill-rule:evenodd;stroke:#e6232a;stroke-width:0.56690001;stroke-linecap:butt;stroke-linejoin:miter;stroke-miterlimit:22.92558479;stroke-dasharray:none;stroke-opacity:1" d="m 358.9231,517.6449 h 2.5727 c 0.9528,0 2.1915,4.5028 2.5728,5.5751 0.667,1.9834 1.7152,4.3421 2.3822,6.272 l 1.9057,-5.8434 h -2.8587 c -1.1435,0 -2.3822,-4.5028 -2.3822,-6.0037 h 11.2441 c 0,2.7875 -6.2892,20.2096 -7.6232,20.2096 H 366.26 c -1.6197,0 -4.0019,-7.9875 -4.6689,-9.8099 -0.5718,-1.7691 -1.2388,-3.8061 -1.9057,-5.4145 -0.3813,-0.8574 -2.3823,-4.9852 -0.7623,-4.9852 z"/><path id="path28" style="fill:#eff0f0;fill-opacity:1;fill-rule:evenodd;stroke:#e6232a;stroke-width:0.56690001;stroke-linecap:butt;stroke-linejoin:miter;stroke-miterlimit:22.92558479;stroke-dasharray:none;stroke-opacity:1" d="m 333.9575,536.7824 v -8.8988 c 0,-5.5749 0.9531,-10.5069 6.575,-10.5069 h 0.4765 c 4.955,0 6.0982,4.9856 6.0982,9.9709 v 9.4348 c 0,0.6432 -0.1905,0.8042 -0.8575,0.8042 h -2.0962 c -1.3343,0 -0.7625,-4.6103 -0.7625,-6.0577 0,-2.2515 0,-4.5566 0,-6.8079 -0.4763,-0.7506 -0.5718,-1.3402 -1.8105,-1.3402 h -1.8102 c -2.954,0 -2.1918,3.3772 -2.1918,6.3255 0,1.5545 0.667,7.8803 -0.7622,7.8803 h -2.0965 c -0.5718,0 -0.7623,-0.161 -0.7623,-0.8042 z"/><path id="path30" style="fill:#eff0f0;fill-opacity:1;fill-rule:evenodd;stroke:#e6232a;stroke-width:0.56690001;stroke-linecap:butt;stroke-linejoin:miter;stroke-miterlimit:22.92558479;stroke-dasharray:none;stroke-opacity:1" d="m 202.6511,526.2755 c 0,-2.3587 0.2857,-3.9132 1.048,-5.5216 0.5717,-1.1792 2.0965,-3.109 3.6209,-3.109 l 2.1918,-0.1072 2.8584,0.375 c 0.7626,1.1795 1.62,1.0724 2.3823,3.1093 0.3812,1.0185 1.0482,3.0019 1.0482,4.5029 v 11.2575 c 0,0.6432 -0.1905,0.8042 -0.8575,0.8042 h -2.0965 c -2.5727,0 1.4293,-14.2058 -2.3822,-14.2058 h -2.2867 c -1.62,0 -2.0965,1.3402 -2.0965,2.8947 v 11.3111 h -3.4302 z"/><path id="path32" style="fill:#eff0f0;fill-opacity:1;fill-rule:evenodd;stroke:#e6232a;stroke-width:0.56690001;stroke-linecap:butt;stroke-linejoin:miter;stroke-miterlimit:22.92558479;stroke-dasharray:none;stroke-opacity:1" d="m 230.1891,528.6342 v -2.3587 c 0,-3.4308 2.4775,-8.6306 5.5267,-8.6306 h 4.7645 c 0.7622,0 2.5727,5.0388 2.5727,5.4677 0,2.198 -9.4334,-2.3587 -9.4334,3.9671 v 0.536 c 0,2.0906 0.5717,3.1091 1.8105,3.9132 h 5.5267 c 0.2857,0.4825 2.0962,5.2535 2.0962,5.5217 0,0.375 -0.3813,0.536 -0.7622,0.536 h -6.8607 c -1.1435,0 -3.3353,-2.1444 -3.907,-3.1629 -0.7622,-1.501 -1.334,-3.4844 -1.334,-5.7895 z"/><path id="path34" style="fill:#eff0f0;fill-opacity:1;fill-rule:evenodd;stroke:none" d="m 316.9012,518.6633 h 2.2867 l 1.334,11.8472 0.4765,-0.0536 3.5257,-12.0617 1.4293,-0.0536 3.6209,12.2224 1.5248,-11.9007 h 2.2867 c 0,2.7876 -0.7622,7.1297 -1.2387,9.8102 -0.381,2.3587 -0.4765,8.2553 -3.0493,8.3625 l -4.0972,-12.9192 c -0.8577,1.9298 -2.6682,12.8656 -4.4787,12.8656 -1.334,0 -2.2867,-6.8615 -2.382,-8.3628 -0.0955,-3.2162 -1.2387,-6.8079 -1.2387,-9.7563"/><path id="path36" style="fill:#eff0f0;fill-opacity:1;fill-rule:evenodd;stroke:none" d="m 185.5945,518.9315 h 2.1917 l 1.4292,11.579 h 0.5718 c 0.0952,-1.9299 2.5727,-12.1153 3.9067,-12.1153 2.287,0 3.1445,11.0968 4.574,12.1153 l 1.4292,-11.8472 h 2.3822 c 0,2.6269 -0.953,6.7009 -1.2387,9.4884 -0.286,1.8763 -0.7625,8.6307 -2.3822,8.6307 -2.001,0 -3.2398,-12.3832 -5.0502,-12.8656 0,1.9834 -2.954,12.8656 -4.1928,12.8656 -1.62,0 -2.0962,-6.3791 -2.3822,-8.3089 -0.3813,-1.9837 -1.2387,-7.6122 -1.2387,-9.542"/><path id="path38" style="fill:#eff0f0;fill-opacity:1;fill-rule:evenodd;stroke:none" d="m 217.0395,531.2608 c 0,-6.1645 3.4302,-4.9853 9.2429,-4.9853 0.2857,-0.4825 0.4765,-0.7506 0.4765,-1.5545 v -1.0724 c 0,-0.5896 -0.3813,-1.0185 -1.0483,-1.0185 l -7.2419,-0.0535 -1.4292,-3.9133 h 8.9569 c 2.0012,0 3.1447,3.1094 3.1447,5.5216 v 0.804 c 0,5.6823 -5.0505,3.1628 -9.4337,4.1813 -0.1905,0.5896 -0.2857,0.5896 -0.2857,1.3403 v 1.0184 c 0,0.5897 0.1905,0.5897 0.5717,1.0721 h 7.1465 l 1.2387,3.9132 h -8.9569 c -0.4765,-1.1792 -2.3822,-0.9649 -2.3822,-5.2534"/><path id="path40" style="fill:#eff0f0;fill-opacity:1;fill-rule:evenodd;stroke:none" d="m 359.1136,518.6633 h 2.668 l 4.6692,12.7049 2.954,-8.7381 -4.3835,-0.0535 -1.1432,-3.9133 h 9.7191 c -0.0952,1.5546 -2.4775,7.7193 -3.1444,9.4884 -0.4765,1.5546 -2.4775,8.6307 -3.9068,8.6307 h -0.8574 c -0.1908,-0.9113 -1.3343,-2.8947 -1.8105,-4.235 -0.4765,-1.6616 -1.0483,-2.9483 -1.62,-4.6638 -0.667,-1.9834 -2.954,-7.2904 -3.1445,-9.2203"/><path id="path42" style="fill:#eff0f0;fill-opacity:1;fill-rule:evenodd;stroke:none" d="m 255.4404,518.9315 h 8.0994 c 0.8578,0 1.8105,2.7873 1.9058,3.6986 h -7.623 v 3.6454 l 5.908,0.0536 1.1432,3.1093 h -7.0512 v 3.1626 h 6.1937 l 1.1435,3.6454 h -9.7194 z"/><path id="path44" style="fill:#eff0f0;fill-opacity:1;fill-rule:evenodd;stroke:none" d="m 334.434,526.8115 c 0,-1.8226 0.3813,-4.3957 1.0483,-5.5213 0.5717,-0.9113 2.5727,-2.895 3.7162,-2.895 h 1.8105 c 3.4302,0 5.5267,3.5382 5.5267,6.8618 v 11.2572 h -2.573 V 524.721 c 0,-1.2867 -1.1435,-2.3587 -2.3822,-2.3587 h -1.6197 c -1.62,0 -2.8588,0.7503 -2.8588,2.3587 v 11.7932 h -2.668 z"/><path id="path46" style="fill:#eff0f0;fill-opacity:1;fill-rule:evenodd;stroke:#e6232a;stroke-width:0.56690001;stroke-linecap:butt;stroke-linejoin:miter;stroke-miterlimit:22.92558479;stroke-dasharray:none;stroke-opacity:1" d="m 348.1554,517.6449 h 8.8617 l 1.906,6.0037 h -7.3372 v 13.938 h -3.4305 z"/><path id="path48" style="fill:#eff0f0;fill-opacity:1;fill-rule:evenodd;stroke:#e6232a;stroke-width:0.56690001;stroke-linecap:butt;stroke-linejoin:miter;stroke-miterlimit:22.92558479;stroke-dasharray:none;stroke-opacity:1" d="m 243.6248,517.6449 h 8.0994 c 0.7622,0 3.7162,6.0037 1.8105,6.0037 h -6.4795 v 13.938 h -3.4304 z"/><path id="path50" style="fill:#eff0f0;fill-opacity:1;fill-rule:evenodd;stroke:none" d="m 203.1273,525.7395 c 0,-4.0743 1.906,-7.3443 6.0985,-7.3443 h 0.4765 c 4.0022,0 5.5267,4.1814 5.5267,8.1485 v 9.9705 h -2.668 v -11.5253 c 0,-1.3403 -0.8578,-2.6266 -2.287,-2.6266 h -2.668 c -0.953,0 -2.0965,1.8226 -2.0965,2.8947 v 11.2572 h -2.3822 z"/><path id="path52" style="fill:#eff0f0;fill-opacity:1;fill-rule:evenodd;stroke:none" d="m 230.7609,529.9744 v -2.0908 c 0,-4.074 1.62,-9.2203 5.2409,-9.2203 h 4.669 l 1.334,3.9668 h -6.003 c -1.8105,0 -2.954,2.1445 -2.954,3.9136 v 2.3584 c 0,1.4476 1.334,3.6989 2.954,3.6989 h 4.669 l 1.334,3.9132 h -5.7172 c -3.0493,0 -5.5267,-3.806 -5.5267,-6.5398"/><path id="path54" style="fill:#000000;fill-opacity:1;fill-rule:evenodd;stroke:none" d="m 371.215,541.4998 c 0,-2.734 2.3822,-5.468 5.0505,-5.468 2.9537,0 5.5267,2.3051 5.5267,5.2534 0,2.198 -2.1918,4.9856 -4.288,4.9856 h -2.0965 c -1.9057,0 -4.1927,-2.734 -4.1927,-4.771"/><path id="path56" style="fill:#c6c2c1;fill-opacity:1;fill-rule:evenodd;stroke:none" d="m 216.2772,539.9453 2.2867,-0.1074 2.8588,3.967 0.0952,0.2679 1.62,-2.573 h -2.0965 c -0.667,0 -1.4292,-1.2331 -1.6197,-1.8227 h 7.6229 c -0.667,0.9649 -4.0975,6.5937 -4.9549,6.5937 h -0.8575 c -0.953,0 -4.288,-5.3606 -4.955,-6.3255"/><path id="path58" style="fill:#c6c2c1;fill-opacity:1;fill-rule:evenodd;stroke:none" d="m 236.0018,539.9453 2.2867,0.0536 2.954,4.0739 0.1905,-0.2679 1.3343,-2.3051 h -2.0965 c -0.7623,0 -1.334,-1.1256 -1.5245,-1.8227 h 7.3372 c -0.1908,0.8578 -1.62,2.7876 -2.1918,3.5918 -0.7622,1.0185 -1.5244,3.0019 -3.0492,3.0019 h -0.2857 c -0.953,0 -4.4788,-5.307 -4.955,-6.3255"/><path id="path60" style="fill:#c6c2c1;fill-opacity:1;fill-rule:evenodd;stroke:none" d="m 248.294,544.6624 v -0.7503 c 0,-0.7506 0.667,-1.0185 1.048,-1.3402 1.62,0 4.8597,0.4289 5.5267,-0.5361 -0.667,-0.9649 -4.0972,-0.536 -5.7172,-0.536 l -0.8575,-1.5545 h 6.5747 c 0.953,0 1.9057,0.4824 1.9057,1.3399 v 0.7506 c 0,0.7507 -0.1905,0.7507 -0.2857,1.3403 -1.334,0.3214 -5.5267,-0.2682 -6.289,0.7503 0.2857,0.4825 0,0.536 0.7623,0.536 l 4.5737,0.1075 1.2387,1.5009 c -2.4775,0 -8.4804,0.8042 -8.4804,-1.6084"/><path id="path62" style="fill:#c6c2c1;fill-opacity:1;fill-rule:evenodd;stroke:none" d="m 203.6991,544.6624 h 5.5267 c 0.667,0 0.7625,-0.375 1.0482,-0.7503 -0.2857,-0.4289 -0.3812,-0.8042 -1.0482,-0.8042 h -5.8125 v -3.1626 h 2.0962 v 1.5545 h 2.6683 c 0.667,0 0.9527,-0.9649 1.8105,-1.5545 l 2.3819,0.0536 -1.6197,1.5009 v 0.536 c 0.8575,0.2143 1.6197,0.8578 1.6197,1.8763 0,1.3938 -1.3339,2.3587 -2.6679,2.3587 h -4.4785 c -0.7622,0 -1.334,-0.9113 -1.5247,-1.6084"/><path id="path64" style="fill:#c6c2c1;fill-opacity:1;fill-rule:evenodd;stroke:none" d="m 192.1694,539.9453 2.2867,0.0536 2.954,4.0739 0.0953,-0.2679 1.4295,-2.3051 h -2.573 l -1.048,-1.8227 h 7.3372 c -0.286,0.9649 -4.0975,6.5937 -5.0505,6.5937 h -0.4762 c -1.0483,0 -4.4788,-5.307 -4.955,-6.3255"/><path id="path66" style="fill:#c6c2c1;fill-opacity:1;fill-rule:evenodd;stroke:none" d="m 227.6164,545.1987 v -5.2534 h 1.8105 v 3.4308 c 1.334,-0.3753 3.7162,-3.699 4.7644,-3.699 h 0.1905 c 0.667,0 1.0483,0.4289 1.0483,1.0721 v 5.5216 h -1.8105 v -3.6989 c -0.953,0.697 -3.907,3.6989 -4.7645,3.6989 h -0.1905 c -0.667,0 -1.0482,-0.4289 -1.0482,-1.0721"/><path id="path68" style="fill:#eff0f0;fill-opacity:1;fill-rule:evenodd;stroke:#e6232a;stroke-width:0.56690001;stroke-linecap:butt;stroke-linejoin:miter;stroke-miterlimit:22.92558479;stroke-dasharray:none;stroke-opacity:1" d="m 310.3262,525.257 h 4.4785 c 0.286,1.1792 2.4775,4.9853 0.7622,4.9853 h -4.4784 c -0.2858,-1.2328 -2.4775,-4.9853 -0.7623,-4.9853 z"/><path id="path70" style="fill:#c6c2c1;fill-opacity:1;fill-rule:evenodd;stroke:none" d="m 213.4185,539.9453 h 2.0962 v 6.3255 h -2.0962 z"/><path id="path72" style="fill:#dddede;fill-opacity:1;fill-rule:evenodd;stroke:none" d="m 149.004,531.2608 c 74.0554,63.669 199.7079,70.7431 241.1734,30.2343 l 6.5746,9.7027 c 5.1137,7.5467 -73.1613,34.5291 -128.461,23.1115 -55.2997,-11.4177 -96.6294,-37.4763 -119.287,-63.0485"/><path id="path74" style="fill:#eff0f0;fill-opacity:1;fill-rule:evenodd;stroke:none" d="m 182.4925,501.1923 c 50.5806,-28.3655 160.7939,-22.8115 228.7826,38.217 -22.8136,-25.4313 -69.1742,-54.4003 -115.9093,-61.814 -79.912,-7.5161 -103.0425,3.7737 -122.1587,16.4092 z"/><path id="path76" style="fill:#eff0f0;fill-opacity:1;fill-rule:evenodd;stroke:none" d="m 146.9075,509.2288 -4.1927,3.0285 11.2586,14.2529 4.1074,-3.3973 z"/><path id="path78" style="fill:#dddede;fill-opacity:1;fill-rule:evenodd;stroke:none" d="m 151.3766,500.6134 c -0.1627,0.5143 -4.6593,3.8977 -4.6593,3.8977 l 15.8652,20.478 4.0499,-3.1634 z"/><path id="path80" style="fill:#dddede;fill-opacity:1;fill-rule:evenodd;stroke:none" d="m 150.6237,496.3629 c 0.9026,0.1015 22.2973,29.162 22.2973,29.162 l 4.7716,-3.7236 -22.3044,-28.601 z"/><path id="path82" style="fill:#f0861b;fill-opacity:1;fill-rule:evenodd;stroke:none" d="m 416.4321,562.46 4.1925,-3.0285 -11.2584,-14.2529 -4.1074,3.3971 z"/><path id="path84" style="fill:#f0861b;fill-opacity:1;fill-rule:evenodd;stroke:none" d="m 411.963,571.0754 c 0.1627,-0.5142 4.6593,-3.898 4.6593,-3.898 l -15.8652,-20.4777 -4.0499,3.1632 z"/><path id="path86" style="fill:#f0861b;fill-opacity:1;fill-rule:evenodd;stroke:none" d="m 412.7159,575.3256 c -0.9025,-0.1014 -22.2976,-29.1619 -22.2976,-29.1619 l -4.7713,3.7235 22.3044,28.6013 z"/><path id="path88" style="fill:none;stroke:#eff0f0;stroke-width:1.70079994;stroke-linecap:butt;stroke-linejoin:miter;stroke-miterlimit:22.92558479;stroke-dasharray:none;stroke-opacity:1" d="m 376.5036,547.6765 c 3.149,0 5.7013,-2.5523 5.7013,-5.7013 0,-3.1487 -2.5523,-5.7011 -5.7013,-5.7011 -3.1487,0 -5.701,2.5524 -5.701,5.7011 0,3.149 2.5523,5.7013 5.701,5.7013 z"/><text id="text92" style="font-variant:normal;font-weight:normal;font-size:11.98716736px;font-family:MicrosoftYaHeiRegular;-inkscape-font-specification:MicrosoftYaHeiRegular;writing-mode:lr-tb;fill:#eff0f0;fill-opacity:1;fill-rule:nonzero;stroke:#eff0f0;stroke-width:0.21600001;stroke-linecap:butt;stroke-linejoin:miter;stroke-miterlimit:22.92558479;stroke-dasharray:none;stroke-opacity:1" transform="matrix(1,0,0,-0.7870917,372.5048,538.6164)"><tspan id="tspan90" y="0" x="0">R</tspan></text>
<path id="path94" style="fill:#eff0f0;fill-opacity:1;fill-rule:evenodd;stroke:none" d="m 246.3318,546.279 h 0.7804 l -0.3739,-1.7742 z"/></g></svg>