<svg xmlns="http://www.w3.org/2000/svg" id="svg" viewBox="245.94 375.56 264.8 85.88"><path d="M388.867 419.39l-11.181 1.43c1.144-1.645 3.557-3.79 4.955-5.648 1.525-2.144 3.05-3.86 4.574-6.218 1.27-1.858 7.623-12.222 7.623-14.08v-.358c0-3.36-3.43-14.724-5.971-14.724h-.382c-1.397 0-4.32 8.649-5.082 10.293-1.651 3.359-3.303 7.076-5.209 10.22-2.033 3.217-3.684 6.505-5.971 9.507-.89 1.287-6.48 8.434-6.48 9.22 0 1.358 3.176 7.934 3.939 9.15 2.922 5.145 2.033 3.501 8.64 3.501h6.352c-1.017 4.289-8.004 21.014-8.004 23.087v.357c0 1.216 6.733 5.933 6.987 5.933 1.78 0 5.844-12.008 6.734-14.224 1.652-4.074 4.955-11.65 5.844-15.653l8.767-.214c.762-1.216 6.352-12.866 6.352-14.01v-.357c0-.858-.635-1.43-1.397-1.43h-.763c-1.651 0-4.192 1.43-7.369 1.43.255-2.144 3.685-10.793 4.574-13.366.636-1.93 4.193-12.365 4.193-13.58 0-.858-8.64-13.723-9.783-13.723-1.652 0-2.795 8.505-3.303 10.435-.636 3.43-1.652 7.862-2.668 11.293-1.017 3.216-2.033 7.433-2.923 10.793-.634 2.645-2.794 8.577-3.048 10.936z" fill="#e6232a" fill-rule="evenodd" stroke="#cacacb" stroke-width=".7559981099999998" stroke-miterlimit="22.926"/><path d="M389.883 421.177l-16.39 1.715c.636-1.072 4.447-5.004 5.718-6.218 1.905-2.073 3.811-4.36 5.463-6.72 1.27-1.858 8.766-13.508 8.766-15.438 0-3.002-2.922-12.437-4.955-12.937-1.652 7.22-16.643 34.38-21.344 37.453.889 1.859 4.32 10.864 5.971 10.864l13.849.072-8.894 25.017 5.972 4.002c2.032-4.432 4.065-10.292 5.97-15.01.89-2.502 1.78-4.932 2.923-7.648.508-1.358 2.033-7.147 3.303-7.147l8.259-.072 5.463-12.15-10.546 2.072 9.91-29.09-8.512-11.865c-.508 5.646-3.557 16.082-5.082 21.943-1.27 5.218-5.463 17.154-5.844 21.157" fill="#fd0202" fill-rule="evenodd"/><path d="M246.316 432.327h4.574l2.16-14.01c0 2.43 3.049 14.367 5.209 14.367h.38c1.906 0 4.828-11.436 4.828-13.652h.763c0 2.073.89 13.295 2.414 13.295h3.557c0-5.29-1.143-9.507-1.779-14.295-.38-2.645-1.016-12.652-3.557-12.652h-.254c-2.414 0-5.336 13.009-5.971 15.797-1.906-2.717-3.558-15.797-6.353-15.797h-.381c-2.541 0-3.05 9.65-3.43 12.58-.508 4.003-2.16 10.578-2.16 14.367zM421.391 431.683c0 .43.509.644 1.144.644h3.557l1.652-13.652c1.779 2.073 2.668 14.01 5.59 14.01h.381c2.796 0 3.939-11.58 5.59-14.01l1.78 13.652h3.43c1.905 0 .635-5.004.38-6.576-.254-2.073-.762-4.646-1.143-7.362-.38-2.645-1.27-13.009-3.684-13.009h-.382c-3.175 0-4.573 14.51-6.352 15.797 0-2.002-3.939-15.797-5.59-15.797h-1.398c-.635 2.216-1.524 2.073-1.778 5.933-.127 2.216-.89 4.431-1.017 6.647-.254 4.074-2.16 10.435-2.16 13.723zM288.75 413.457v1.072c0 4.575 1.017 5.79 3.812 7.648 2.033 0 9.148-.786 9.148 1.072 0 .786-.254 1.073-1.016 1.073h-9.783l-2.541 8.005h12.577c3.685 0 5.336-4.789 5.336-8.72 0-4.289-1.27-8.077-5.59-8.077h-7.368v-1.715h9.02c1.27 0 3.558-6.433 3.558-8.077h-12.324c-3.05 0-4.828 4.36-4.828 7.719zM339.57 406.81v24.516c0 .786.128 1 1.017 1h11.816c.508-1.786 2.541-5.646 2.541-7.004v-1H344.4v-1.787h6.606c1.525 0 3.177-5.576 3.177-7.363h-9.783v-1.357h8.004l2.541-8.077h-14.357c-.89 0-1.016.214-1.016 1.072zM478.564 432.327h3.43c1.27 0 2.922-6.004 3.43-7.434.89-2.644 2.288-5.79 3.177-8.363l2.541 7.792h-3.812c-1.524 0-3.176 6.003-3.176 8.005h14.992c0-3.717-8.385-26.947-10.164-26.947h-.635c-2.16 0-5.336 10.65-6.226 13.08-.762 2.36-1.651 5.075-2.54 7.22-.509 1.143-3.177 6.647-1.017 6.647zM445.277 406.81v11.865c0 7.433 1.27 14.01 8.766 14.01h.636c6.606 0 8.13-6.648 8.13-13.295v-12.58c0-.858-.253-1.072-1.143-1.072h-2.795c-1.779 0-1.016 6.147-1.016 8.077v9.077c-.635 1-.763 1.787-2.414 1.787h-2.414c-3.939 0-2.922-4.503-2.922-8.434 0-2.073.889-10.507-1.017-10.507h-2.795c-.762 0-1.016.214-1.016 1.072zM270.201 420.82c0 3.144.381 5.217 1.398 7.361.762 1.572 2.795 4.146 4.828 4.146l2.922.142 3.811-.5c1.017-1.572 2.16-1.43 3.177-4.145.508-1.358 1.397-4.003 1.397-6.004v-15.01c0-.858-.254-1.072-1.143-1.072h-2.795c-3.43 0 1.905 18.94-3.177 18.94h-3.049c-2.16 0-2.795-1.786-2.795-3.859v-15.081h-4.574zM306.919 417.674v3.145c0 4.574 3.303 11.508 7.369 11.508h6.352c1.017 0 3.43-6.719 3.43-7.29 0-2.931-12.577 3.144-12.577-5.29v-.715c0-2.787.762-4.145 2.414-5.217h7.369c.38-.644 2.795-7.005 2.795-7.363 0-.5-.509-.714-1.017-.714h-9.147c-1.525 0-4.447 2.859-5.21 4.217-1.016 2.001-1.778 4.646-1.778 7.72z" fill="#eff0f0" fill-rule="evenodd" stroke="currentColor" stroke-width=".7559981099999998" stroke-miterlimit="22.926"/><path d="M422.535 430.969h3.049l1.779-15.797.635.072 4.7 16.082 1.907.072 4.827-16.297 2.033 15.868h3.05c0-3.717-1.017-9.507-1.652-13.08-.508-3.146-.636-11.008-4.066-11.15l-5.463 17.225c-1.143-2.573-3.557-17.154-5.971-17.154-1.78 0-3.05 9.149-3.176 11.15-.128 4.289-1.652 9.077-1.652 13.009M247.46 430.611h2.922l1.905-15.439h.763c.127 2.574 3.43 16.154 5.209 16.154 3.049 0 4.192-14.796 6.098-16.154l1.906 15.797h3.176c0-3.503-1.27-8.935-1.652-12.652-.38-2.501-1.016-11.507-3.176-11.507-2.668 0-4.32 16.51-6.733 17.154 0-2.645-3.94-17.154-5.59-17.154-2.16 0-2.796 8.505-3.177 11.078-.508 2.645-1.652 10.15-1.652 12.723M289.386 414.172c0 8.22 4.574 6.647 12.324 6.647.38.643.635 1 .635 2.073v1.43c0 .786-.508 1.358-1.398 1.358l-9.655.07-1.906 5.219h11.943c2.668 0 4.192-4.146 4.192-7.362v-1.072c0-7.577-6.734-4.218-12.578-5.576-.254-.786-.38-.786-.38-1.787v-1.357c0-.787.253-.787.762-1.43h9.528l1.652-5.218h-11.943c-.635 1.573-3.176 1.287-3.176 7.005M478.818 430.969h3.557l6.226-16.94 3.939 11.65-5.845.072-1.524 5.218h12.959c-.127-2.073-3.304-10.293-4.193-12.652-.635-2.072-3.303-11.507-5.209-11.507h-1.143c-.255 1.215-1.78 3.86-2.414 5.647-.636 2.215-1.398 3.93-2.16 6.218-.89 2.644-3.939 9.72-4.193 12.294M340.587 430.611h10.8c1.143 0 2.413-3.716 2.54-4.931h-10.164v-4.86l7.878-.072 1.524-4.146h-9.402v-4.217h8.259l1.524-4.86h-12.959zM445.912 420.104c0 2.43.508 5.861 1.398 7.362.762 1.215 3.43 3.86 4.955 3.86h2.414c4.573 0 7.369-4.717 7.369-9.149v-15.01h-3.431v15.725c0 1.715-1.525 3.145-3.176 3.145h-2.16c-2.16 0-3.812-1-3.812-3.145v-15.725h-3.557z" fill="currentColor" fill-rule="evenodd"/><path d="M464.207 432.327h11.816l2.541-8.005h-9.783v-18.584h-4.574zM324.833 432.327h10.8c1.016 0 4.954-8.005 2.413-8.005h-8.64v-18.584h-4.573z" fill="currentColor" fill-rule="evenodd" stroke="currentColor" stroke-width=".7559981099999998" stroke-miterlimit="22.926"/><path d="M270.836 421.534c0 5.432 2.542 9.792 8.132 9.792h.635c5.336 0 7.369-5.575 7.369-10.865v-13.294h-3.557v15.368c0 1.787-1.144 3.502-3.05 3.502h-3.557c-1.27 0-2.795-2.43-2.795-3.86v-15.01h-3.177zM307.681 415.887v2.788c0 5.432 2.16 12.294 6.988 12.294h6.225l1.78-5.29h-8.005c-2.414 0-3.939-2.859-3.939-5.218v-3.144c0-1.93 1.78-4.932 3.94-4.932h6.224l1.78-5.218h-7.624c-4.066 0-7.369 5.075-7.369 8.72" fill="currentColor" fill-rule="evenodd"/><path d="M494.953 400.52c0 3.645 3.177 7.29 6.734 7.29 3.939 0 7.37-3.073 7.37-7.004 0-2.93-2.923-6.647-5.718-6.647h-2.795c-2.541 0-5.59 3.645-5.59 6.361" fill-rule="evenodd"/><path d="M288.37 402.593l3.049.143 3.811-5.29.127-.357 2.16 3.431h-2.795c-.89 0-1.906 1.644-2.16 2.43h10.164c-.89-1.286-5.463-8.791-6.606-8.791h-1.144c-1.27 0-5.717 7.147-6.606 8.434M314.67 402.593l3.048-.072 3.939-5.432.254.358 1.779 3.073h-2.796c-1.016 0-1.778 1.5-2.032 2.43h9.783c-.255-1.143-2.16-3.717-2.923-4.789-1.016-1.358-2.032-4.002-4.065-4.002h-.381c-1.27 0-5.972 7.076-6.607 8.434M331.059 396.303v1c0 1.001.889 1.359 1.397 1.788 2.16 0 6.48-.572 7.369.714-.89 1.287-5.463.715-7.623.715l-1.143 2.073h8.766c1.27 0 2.54-.644 2.54-1.787v-1c0-1.002-.253-1.002-.38-1.788-1.779-.428-7.369.358-8.385-1 .38-.643 0-.715 1.016-.715l6.098-.143 1.652-2.001c-3.303 0-11.307-1.073-11.307 2.144M271.599 396.303h7.369c.89 0 1.016.5 1.397 1-.38.572-.508 1.073-1.397 1.073h-7.75v4.217h2.795v-2.073h3.557c.89 0 1.27 1.287 2.414 2.073l3.176-.072-2.16-2.001v-.715c1.144-.285 2.16-1.143 2.16-2.501 0-1.859-1.778-3.145-3.557-3.145h-5.971c-1.017 0-1.779 1.215-2.033 2.144M256.226 402.593l3.049-.072 3.938-5.432.128.358 1.906 3.073h-3.431l-1.397 2.43h9.782c-.38-1.286-5.463-8.791-6.734-8.791h-.634c-1.398 0-5.972 7.076-6.607 8.434M303.489 395.588v7.005h2.414v-4.575c1.778.5 4.954 4.932 6.352 4.932h.254c.89 0 1.398-.572 1.398-1.43v-7.361h-2.414v4.932c-1.27-.93-5.21-4.932-6.353-4.932h-.254c-.89 0-1.397.572-1.397 1.43" fill="#c6c2c1" fill-rule="evenodd"/><path d="M413.768 422.177h5.972c.38-1.572 3.303-6.647 1.016-6.647h-5.971c-.381 1.644-3.304 6.647-1.017 6.647z" fill="currentColor" fill-rule="evenodd" stroke="currentColor" stroke-width=".7559981099999998" stroke-miterlimit="22.926"/><path d="M284.558 402.593h2.795v-8.434h-2.795z" fill="#c6c2c1" fill-rule="evenodd"/><path d="M502.005 392.284a7.601 7.601 0 110 15.204 7.601 7.601 0 01-7.602-7.602 7.601 7.601 0 017.602-7.602z" fill="none" stroke="#eff0f0" stroke-width="2.26799433" stroke-miterlimit="22.926"/><text style="-inkscape-font-specification:MicrosoftYaHeiRegular" transform="matrix(1.33333 0 0 1.04946 496.673 404.365)" font-weight="400" font-size="11.987" font-family="MicrosoftYaHeiRegular" fill="#eff0f0" stroke="#eff0f0" stroke-width=".216" stroke-miterlimit="22.926"><tspan y="0" x="0">R</tspan></text><path d="M328.442 394.148h1.04l-.498 2.365z" fill="#eff0f0" fill-rule="evenodd"/></svg>