<svg xmlns="http://www.w3.org/2000/svg" width="400" height="766.061"><path d="M174.754 1.226C66.964 14.856-10.405 112.586.772 220.995c9.846 95.498 87.977 171.676 183.268 178.687l7.475.55v344.01H8.081v16.97h383.838v-16.97H208.485v-344.01l7.475-.55c88.092-6.481 163.364-72.982 180.285-159.278C422.798 104.988 310.78-15.975 174.754 1.226m49.041 17.879C353.401 35.498 423.84 181.79 356.242 294.179c-69.978 116.346-238.988 117.643-311.007 2.387C-36.096 166.406 71.126-.205 223.795 19.105M75.152 126.389c0 .18 1.77 3.362 3.933 7.07 2.163 3.709 24.966 43.107 50.673 87.551a305644.33 305644.33 0 0058.209 100.606c6.307 10.889 11.737 19.798 12.066 19.798.329 0 4.489-6.727 9.244-14.949 62.987-108.914 107.656-186.067 111.194-192.059 2.408-4.077 4.377-7.623 4.377-7.879 0-.257-56.181-.466-124.848-.466s-124.848.147-124.848.328m218.855 17.391c-.148.412-21.34 37.143-47.092 81.624l-46.822 80.875-1.381-2.23c-2.888-4.664-92.853-160.334-92.853-160.668 0-.193 42.394-.351 94.208-.351 57.561 0 94.104.292 93.94.75" fill-rule="evenodd"/></svg>