<svg xmlns="http://www.w3.org/2000/svg" width="400" height="764.072"><path d="M107.753 134.337C57.052 208.143 12.101 273.597 7.862 279.79L.155 291.05l95.714 139.305 95.715 139.306.016 86.028.017 86.028H10.379v16.766h379.242v-16.766H208.383l.017-86.028.016-86.028 95.71-139.298 95.709-139.297-2.194-3.218C387.406 272.834 203.66 5.306 202.045 3.066L199.938.143l-92.185 134.194m180.626 25.344c48.075 70.04 88.01 128.276 88.745 129.414l1.336 2.068-88.963 129.514C240.566 491.91 200.293 550.192 200 550.192c-1.091 0-178.398-259.003-177.9-259.869 3.36-5.848 177.978-259.007 178.355-258.577.284.324 39.85 57.895 87.924 127.935M151.05 218.363c-26.87 39.206-48.854 71.722-48.854 72.256 0 3.446 97.757 143.478 99.013 141.83 4.936-6.474 96.595-141.057 96.595-141.83 0-.773-91.659-135.357-96.595-141.831-1.268-1.663-2.653.258-50.159 69.575m88.011 16.565l38.1 55.686-38.553 56.278c-21.204 30.952-38.781 56.013-39.061 55.691-.279-.323-17.653-25.646-38.608-56.273l-38.1-55.686 38.553-56.278c21.204-30.953 38.781-56.014 39.061-55.691.279.322 17.653 25.645 38.608 56.273" fill-rule="evenodd"/></svg>