<svg xmlns="http://www.w3.org/2000/svg" width="400" height="750.685"><path d="M99.912 172.384L0 344.814l95.89.199 95.891.199V729.55H14.09v16.438h371.82V729.55H208.219V345.212l95.891-.199 95.891-.199-99.672-172.013C245.51 78.194 200.471.601 200.241.372c-.229-.23-45.377 77.176-100.329 172.012m185.635 9.212c46.265 79.858 84.288 145.641 84.496 146.184.304.792-33.235.987-170.024.987-122.031 0-170.324-.241-170.121-.848 1.589-4.768 170.229-293.813 170.817-292.778.394.692 38.568 66.597 84.832 146.455m-140.167-4.864c-2.894 2.917-5.263 5.645-5.263 6.062 0 .417 10.654 11.416 23.675 24.442l23.674 23.684-23.674 23.684c-13.021 13.026-23.675 24.043-23.675 24.482 0 1.014 10.348 11.325 11.366 11.325.417 0 11.416-10.653 24.442-23.674l23.684-23.675 23.683 23.675c13.026 13.021 24.044 23.674 24.483 23.674 1.014 0 11.325-10.348 11.325-11.365 0-.417-10.654-11.416-23.674-24.442l-23.675-23.684 23.675-23.684c13.02-13.026 23.674-24.043 23.674-24.483 0-1.014-10.348-11.324-11.365-11.324-.418 0-11.417 10.653-24.443 23.674l-23.683 23.674-23.684-23.674c-13.026-13.021-24.044-23.674-24.483-23.674-.439 0-3.167 2.386-6.062 5.303" fill-rule="evenodd"/></svg>