<svg xmlns="http://www.w3.org/2000/svg" width="400" height="749.902"><path d="M99.91 171.999L-.016 344.031l95.898.199 95.899.199v384.338H14.09v16.438h371.82v-16.438H208.219V344.429l95.899-.199 95.899-.199-99.7-171.642C245.482 77.986 200.441.572 200.226.357c-.215-.215-45.357 77.024-100.316 171.642m185.643 9.214c46.26 79.648 84.281 145.255 84.489 145.793.303.781-34.02.978-170.023.978-116.822 0-170.319-.254-170.134-.808 1.587-4.761 170.245-293.082 170.836-292.044.397.697 38.571 66.434 84.832 146.081m-93.223-63.302c-.302.302-.549 40.471-.549 89.264v88.715h15.662l-.199-89.041-.199-89.041-7.083-.223c-3.896-.122-7.33.024-7.632.326" fill-rule="evenodd"/></svg>