<svg xmlns="http://www.w3.org/2000/svg" width="400" height="750.685"><path d="M99.912 172.384L0 344.814l95.89.199 95.891.199V729.55H14.09v16.438h371.82V729.55H208.219V345.212l95.891-.199 95.891-.199-99.672-172.013C245.51 78.194 200.471.601 200.241.372c-.229-.23-45.377 77.176-100.329 172.012m185.635 9.212c46.265 79.858 84.288 145.641 84.496 146.184.304.792-33.235.987-170.024.987-122.031 0-170.324-.241-170.121-.848 1.589-4.768 170.229-293.813 170.817-292.778.394.692 38.568 66.597 84.832 146.455m-93.766-1.557v34.442H122.896v16.439H191.781v68.102h16.438V230.92h68.102v-16.439h-68.102v-68.884h-16.438v34.442" fill-rule="evenodd"/></svg>