<svg xmlns="http://www.w3.org/2000/svg" width="400" height="742.074"><path d="M0 .287c0 .157 2.42 4.472 5.378 9.589 11.533 19.949 177.1 305.665 181.614 313.408l4.789 8.215v389.44H14.09v16.439h371.82v-16.439H208.219V331.664l2.996-5.167c1.648-2.841 42.891-74.031 91.651-158.2 48.76-84.168 90.562-156.264 92.894-160.213C398.092 4.135 400 .7 400 .452 400 .203 310 0 200 0S0 .129 0 .287m370.124 16.865c-.144.393-38.457 66.623-85.142 147.179l-84.881 146.465-1.352-2.169C196.204 304.545 29.746 17.063 29.746 16.75c0-.171 76.643-.312 170.319-.312 102.22 0 170.216.286 170.059.714" fill-rule="evenodd"/></svg>